<?xml version="1.0" standalone="no"?>
<!DOCTYPE svg PUBLIC "-//W3C//DTD SVG 20010904//EN"
 "http://www.w3.org/TR/2001/REC-SVG-20010904/DTD/svg10.dtd">
<svg version="1.0" xmlns="http://www.w3.org/2000/svg"
 width="16.000000pt" height="16.000000pt" viewBox="0 0 16.000000 16.000000"
 preserveAspectRatio="xMidYMid meet">
<metadata>
Created by potrace 1.11, written by Peter Selinger 2001-2013
</metadata>
<g transform="translate(0.000000,16.000000) scale(0.002888,-0.002888)"
fill="#000000" stroke="none">
<path d="M2689 5508 c-46 -48 -118 -161 -145 -226 -71 -174 62 -356 251 -343
17 1 54 14 84 28 56 27 106 84 127 146 13 38 9 146 -6 161 -5 5 -10 18 -10 28
0 10 -3 18 -8 18 -4 0 -13 14 -21 32 -8 17 -20 39 -27 47 -7 9 -31 41 -54 71
-45 61 -57 68 -117 69 -36 1 -48 -4 -74 -31z m122 -181 c69 -109 77 -150 44
-201 -19 -29 -75 -51 -110 -42 -36 9 -71 47 -79 83 -6 24 -1 46 16 83 12 27
26 50 30 50 5 0 8 7 8 15 0 8 5 15 10 15 6 0 10 5 10 10 0 16 23 38 35 33 5
-2 22 -23 36 -46z"/>
<path d="M2695 4866 c-70 -30 -120 -93 -131 -166 -3 -19 -8 -37 -10 -39 -2 -2
1 -12 7 -22 5 -11 6 -19 2 -19 -7 0 -9 -54 -3 -70 1 -3 1 -9 0 -15 -5 -24 -3
-93 4 -103 4 -7 4 -12 -1 -12 -10 0 -8 -213 1 -229 4 -6 4 -11 -1 -11 -10 0
-8 -213 1 -229 4 -6 3 -11 -1 -11 -9 0 -8 -74 2 -90 3 -6 3 -10 -2 -10 -4 0
-7 -17 -6 -37 1 -21 2 -45 2 -54 1 -8 7 -23 14 -33 12 -16 31 -18 196 -18 169
0 184 1 201 20 10 11 16 22 14 25 -5 5 -8 280 -4 302 1 6 2 15 1 20 -2 13 -3
449 0 461 1 5 1 11 0 14 -1 3 -3 46 -4 95 -2 84 -5 95 -36 148 -19 31 -37 54
-39 52 -3 -2 -18 5 -34 17 -36 25 -129 32 -173 14z"/>
<path d="M891 3630 c-4 -3 -7 -246 -7 -540 l1 -535 1883 0 c1035 0 1883 2
1883 5 4 17 3 1070 -1 1071 -18 4 -3753 3 -3759 -1z"/>
<path d="M390 2318 c-1 -62 0 -921 0 -985 l0 -23 2380 0 2380 0 0 540 0 540
-2380 0 -2380 0 0 -72z"/>
<path d="M44 1075 c-2 -5 -3 -248 -2 -540 l3 -530 2723 0 c1805 0 2726 3 2730
10 12 17 8 1065 -3 1066 -5 1 -1233 2 -2729 3 -1825 1 -2720 -2 -2722 -9z"/>
</g>
</svg>
